<svg width="26" height="25" viewBox="0 0 26 25" fill="none" xmlns="http://www.w3.org/2000/svg">
<path d="M3.66906 0.806641C1.81537 0.806641 0.635742 2.04244 0.635742 3.61527C0.635742 5.1881 1.87154 6.4239 3.44437 6.4239C3.50055 6.4239 3.55672 6.4239 3.61289 6.4239H3.66906C5.52276 6.4239 6.70238 5.1881 6.70238 3.61527C6.70238 2.04244 5.46659 0.806641 3.89375 0.806641C3.83758 0.806641 3.72524 0.806641 3.66906 0.806641Z" fill="#191919"/>
<path d="M0.972865 8.61449H6.36544V24.7922H0.972865V8.61449Z" fill="#191919"/>
<path d="M19.5097 8.22136C16.6449 8.22136 14.6788 10.9176 14.6788 10.9176V8.5584H9.28627V24.7361H14.6788V15.7485C14.6788 15.2991 14.735 14.8497 14.8474 14.4565C15.2406 13.2769 16.364 12.4905 17.5998 12.4905C19.5659 12.4905 20.3523 13.951 20.3523 16.1417V24.7923H25.7448V15.5238C25.6887 10.5244 23.0486 8.22136 19.5097 8.22136Z" fill="#191919"/>
</svg>
